<svg width="16" height="16" viewBox="0 0 16 16" fill="none" xmlns="http://www.w3.org/2000/svg">
  <path fill-rule="evenodd" clip-rule="evenodd"
    d="M7.99734 15H2.36223C0.99414 15 0.0747629 13.5437 0.700092 12.3399C1.05368 11.659 1.42406 10.9867 1.79444 10.3143L1.79446 10.3143C1.95409 10.0245 2.11372 9.73475 2.27201 9.44429C3.07682 7.96858 3.88211 6.49286 4.6874 5.01714C4.84523 4.72811 5.00249 4.43876 5.15974 4.14942L5.15983 4.14926C5.55711 3.41829 5.95439 2.68731 6.36099 1.96118C6.70993 1.33779 7.26222 1.00622 7.98398 1.00007C8.71575 0.993925 9.28285 1.31745 9.63609 1.95078C10.151 2.87291 10.6556 3.80053 11.1601 4.72803L11.1603 4.72837L11.1604 4.72854C11.3499 5.0768 11.5393 5.42505 11.7293 5.77298C12.5293 7.23781 13.3289 8.70312 14.1284 10.1684C14.2467 10.385 14.366 10.601 14.4853 10.817L14.4854 10.8171L14.4854 10.8172C14.7582 11.3111 15.0311 11.8051 15.2908 12.3059C15.8903 13.4637 15.1385 14.8396 13.8349 14.9929C13.7781 14.9997 13.7206 14.9996 13.6634 14.9995L13.6444 14.9995H7.99734V15ZM8.00498 13.7688L9.12066 13.7689C10.6072 13.769 12.094 13.7692 13.5804 13.7669C13.6773 13.7669 13.7814 13.7532 13.8697 13.7163C14.2124 13.573 14.3523 13.1894 14.1766 12.8602C13.9353 12.4072 13.6886 11.9568 13.4419 11.5065L13.4418 11.5062L13.4415 11.5057C13.3517 11.3417 13.2619 11.1778 13.1723 11.0137C12.6542 10.0639 12.1356 9.11414 11.6171 8.16439L10.8409 6.7426L10.132 5.44346C9.60657 4.48041 9.08107 3.51726 8.55489 2.55478C8.43698 2.3391 8.24509 2.22842 7.99973 2.22984C7.75485 2.23126 7.56534 2.34383 7.44696 2.55951C7.03117 3.31829 6.61681 4.07754 6.20245 4.83679L6.20238 4.83691L6.20108 4.8393L4.99181 7.05548L3.77996 9.27638C3.5734 9.65497 3.36654 10.0334 3.15969 10.4118L3.15967 10.4118C2.72072 11.2148 2.28179 12.0177 1.84573 12.8224C1.59178 13.2911 1.8906 13.7688 2.42905 13.7688H8.0045H8.00498ZM8.62509 8.04031V8.04036C8.62547 8.43078 8.62586 8.82131 8.62382 9.2116C8.62239 9.48072 8.47164 9.70303 8.23073 9.79006C7.98219 9.87992 7.75416 9.83736 7.56095 9.65289C7.43119 9.5285 7.37681 9.37004 7.37633 9.19457C7.3749 8.10954 7.37395 7.02451 7.37633 5.939C7.37729 5.56534 7.64825 5.29338 8.00461 5.29432C8.36287 5.29527 8.62334 5.56724 8.62382 5.94421C8.62445 6.30548 8.62424 6.66675 8.62403 7.02802V7.02924L8.62382 7.57175L8.62477 7.57222C8.62477 7.72822 8.62493 7.88426 8.62509 8.04031ZM8.01787 12.6299C8.44865 12.627 8.72964 12.3447 8.72725 11.9161H8.72773C8.72534 11.48 8.43195 11.1835 8.00356 11.1835C7.57278 11.184 7.27415 11.4834 7.27653 11.9142C7.27892 12.3432 7.57803 12.6322 8.01787 12.6299Z"
    fill="#222222" />
</svg>