<svg width="20" height="21" viewBox="0 0 20 21" fill="none" xmlns="http://www.w3.org/2000/svg">
  <g clip-path="url(#clip0_38684_6333)">
    <path fill-rule="evenodd" clip-rule="evenodd"
      d="M3.84334 6.00062C3.941 6.05678 4.04842 6.08412 4.15584 6.08412C4.30721 6.08412 4.45759 6.02895 4.57575 5.92202L5.63337 4.96352L7.02888 5.26479C7.29548 5.32241 7.56648 5.20131 7.70222 4.96645C7.83797 4.7311 7.80623 4.4352 7.62361 4.23403L6.66463 3.17641L6.96639 1.78139C7.02401 1.51576 6.9034 1.24379 6.66805 1.10805C6.43319 0.970839 6.13729 1.00306 5.93563 1.18617L4.87801 2.14515L3.48299 1.84339C3.21444 1.78284 2.9449 1.90638 2.80965 2.14173C2.67341 2.37708 2.70515 2.67298 2.88777 2.87415L3.84627 3.93177L3.545 5.32728C3.48738 5.59242 3.60799 5.86488 3.84334 6.00062ZM1.3574 11.8795C2.03514 16.151 5.6699 19.2506 9.99998 19.2506C14.8252 19.2506 18.75 15.3258 18.75 10.5006C18.75 5.74087 14.8799 1.81704 10.1318 1.75161L9.99999 1.75063C9.78124 1.75063 9.56445 1.75942 9.35058 1.77407C8.93749 1.80239 8.62597 2.16078 8.65429 2.57387C8.68358 2.98696 9.04784 3.30532 9.45409 3.27016C9.63476 3.25747 9.8164 3.25063 9.99999 3.25063L10.1025 3.25161C14.043 3.30532 17.25 6.55727 17.25 10.5006C17.25 14.4987 13.998 17.7506 9.99999 17.7506C6.4121 17.7506 3.40038 15.1833 2.83983 11.6452C2.82518 11.5563 2.81346 11.4665 2.80272 11.3766C2.75389 10.9645 2.38573 10.6764 1.96971 10.7194C1.55857 10.7682 1.26463 11.1403 1.31248 11.5524C1.32517 11.6618 1.3408 11.7711 1.3574 11.8795ZM10.0006 5.76101C10.2313 5.75288 10.456 5.83488 10.6272 5.98963C10.9576 6.35468 10.9576 6.91065 10.6272 7.2757C10.4579 7.43421 10.2324 7.51878 10.0006 7.51074C9.76425 7.52022 9.53471 7.43039 9.36758 7.26299C9.20551 7.09509 9.11842 6.86867 9.12621 6.63544C9.11383 6.40047 9.1958 6.17029 9.35391 5.99604C9.52749 5.8313 9.76178 5.74616 10.0006 5.76101ZM10 15.5651C9.58597 15.5651 9.25003 15.2291 9.25003 14.8151V9.98011C9.25003 9.56605 9.58597 9.23011 10 9.23011C10.4141 9.23011 10.75 9.56605 10.75 9.98011V14.8151C10.75 15.2291 10.4141 15.5651 10 15.5651ZM1.04746 9.29848C0.940037 9.29848 0.832617 9.27114 0.734957 9.21498C0.499607 9.07924 0.378997 8.80678 0.436617 8.54164L0.562597 7.95766L0.161717 7.51528C-0.0204129 7.31411 -0.0521529 7.01821 0.0840771 6.78335C0.218847 6.548 0.490327 6.42446 0.756927 6.48501L1.34043 6.61099L1.78281 6.21011C1.98349 6.02749 2.28037 5.99478 2.51474 6.13247C2.75009 6.26821 2.8707 6.54018 2.81308 6.80532L2.6871 7.38833L3.08798 7.83071C3.2706 8.03188 3.30234 8.32778 3.16659 8.56313C3.03036 8.79799 2.75936 8.91909 2.49325 8.86147L1.90975 8.73549L1.46737 9.13637C1.34921 9.2433 1.19883 9.29848 1.04746 9.29848Z"
      fill="#222222" />
  </g>
  <defs>
    <clipPath id="clip0_38684_6333">
      <rect width="20" height="20" fill="white" transform="translate(0 0.5)" />
    </clipPath>
  </defs>
</svg>