<svg width="16" height="16" viewBox="0 0 16 16" fill="none" xmlns="http://www.w3.org/2000/svg">
  <path fill-rule="evenodd" clip-rule="evenodd"
    d="M14.3999 3.4001V12.6001C14.3999 13.5927 13.5925 14.4001 12.5999 14.4001H9.55107C9.21982 14.4001 8.95107 14.1313 8.95107 13.8001C8.95107 13.4689 9.21982 13.2001 9.55107 13.2001H12.5999C12.9308 13.2001 13.1999 12.931 13.1999 12.6001V3.4001C13.1999 3.06924 12.9308 2.8001 12.5999 2.8001H3.3999C3.06904 2.8001 2.7999 3.06924 2.7999 3.4001V6.37431C2.7999 6.70556 2.53115 6.97431 2.1999 6.97431C1.86865 6.97431 1.5999 6.70556 1.5999 6.37431V3.4001C1.5999 2.40752 2.40732 1.6001 3.3999 1.6001H12.5999C13.5925 1.6001 14.3999 2.40752 14.3999 3.4001ZM8.7999 11.1942V7.8001C8.7999 7.46885 8.53116 7.2001 8.19991 7.2001H4.80576C4.47452 7.2001 4.20576 7.46885 4.20576 7.8001C4.20576 8.13135 4.47452 8.4001 4.80576 8.4001H6.75147L1.57568 13.5759C1.34131 13.8103 1.34131 14.1899 1.57568 14.4243C1.69287 14.5415 1.84639 14.6001 1.9999 14.6001C2.15341 14.6001 2.30693 14.5415 2.42412 14.4243L7.5999 9.24854V11.1942C7.5999 11.5255 7.86865 11.7942 8.1999 11.7942C8.53115 11.7942 8.7999 11.5255 8.7999 11.1942Z"
    fill="#222222" />
</svg>