<svg width="20" height="20" viewBox="0 0 20 20" fill="none" xmlns="http://www.w3.org/2000/svg">
  <path
    d="M10.0004 18.749C9.67084 18.749 9.34125 18.6855 9.03461 18.5576C8.40033 18.2939 7.86518 17.8516 7.48578 17.2773C7.27728 17.0137 6.92426 16.8711 6.58099 16.9121C5.94378 17.0498 5.26068 16.9893 4.63275 16.7334C4.01654 16.4834 3.51849 15.9853 3.26703 15.3662C3.01215 14.7412 2.9516 14.0596 3.0932 13.3955C3.12982 13.0693 2.98041 12.709 2.70648 12.501C2.1596 12.1484 1.70892 11.6084 1.44134 10.9648C1.18646 10.3516 1.18646 9.64844 1.44183 9.03516C1.70892 8.39161 2.1596 7.85157 2.74505 7.47168C2.9804 7.29102 3.12982 6.93066 3.08734 6.58106C2.95209 5.94239 3.01166 5.26075 3.26654 4.63477C3.518 4.01563 4.01654 3.51758 4.63519 3.26661C5.26019 3.01368 5.94085 2.9502 6.60345 3.09278C6.92572 3.12598 7.27972 2.98536 7.4887 2.71973C7.86663 2.14746 8.40032 1.70606 9.03411 1.44141C9.64837 1.18848 10.351 1.18653 10.9643 1.44141C11.5971 1.70508 12.1293 2.14453 12.5073 2.71289C12.7143 2.98242 13.0703 3.13086 13.4184 3.08691C14.0576 2.95312 14.7387 3.01074 15.3666 3.26464C15.9838 3.51757 16.4814 4.01562 16.7328 4.63183C16.9882 5.26074 17.0483 5.94238 16.9067 6.60546C16.8705 6.9248 17.0151 7.27929 17.2807 7.48925C17.8534 7.86718 18.2949 8.40136 18.5585 9.03515C18.8134 9.64843 18.8134 10.3516 18.558 10.9648C18.2909 11.6084 17.8403 12.1484 17.2548 12.5283C17.0195 12.709 16.87 13.0693 16.9125 13.4189C17.0483 14.0596 16.9877 14.7412 16.7323 15.3672C16.4814 15.9853 15.9833 16.4834 15.3656 16.7344C14.7392 16.9902 14.0571 17.0498 13.393 16.9062C13.0663 16.8623 12.7074 17.0215 12.5019 17.293C12.4911 17.3076 12.4794 17.3213 12.4677 17.335C12.0619 17.9111 11.5566 18.3115 10.9643 18.5576C10.6581 18.6855 10.3295 18.749 10.0004 18.749ZM8.6933 16.3867C8.72357 16.4268 8.75043 16.4697 8.77191 16.5127C8.94427 16.7686 9.24847 17.0225 9.61078 17.1729C9.85834 17.2754 10.1406 17.2773 10.3881 17.1729C10.7514 17.0225 11.0556 16.7686 11.27 16.4385C11.2812 16.4219 11.2934 16.4043 11.3066 16.3867C11.833 15.6914 12.7011 15.3193 13.5883 15.4219C13.6132 15.4248 13.686 15.4346 13.7104 15.4395C14.0776 15.5195 14.4531 15.4854 14.8007 15.3447C15.0463 15.2451 15.2436 15.0478 15.3432 14.8018C15.4848 14.4541 15.518 14.0762 15.4399 13.708C15.4355 13.6895 15.4272 13.6279 15.4243 13.6094C15.3164 12.7188 15.685 11.8398 16.3852 11.3076C16.769 11.0557 17.0224 10.751 17.1728 10.3887C17.2758 10.1416 17.2758 9.8584 17.1733 9.61133C17.0224 9.24903 16.769 8.94434 16.4394 8.73145C16.4184 8.71778 16.3979 8.70313 16.3784 8.6875C15.6762 8.14062 15.3173 7.27148 15.4233 6.39941C15.4262 6.37793 15.435 6.31347 15.4399 6.29101C15.5185 5.92382 15.4848 5.54589 15.3432 5.19726C15.2436 4.95214 15.0458 4.7539 14.8012 4.65429C14.454 4.51367 14.0756 4.47851 13.7094 4.55956C13.6889 4.56347 13.6235 4.57323 13.603 4.57616C12.7187 4.67968 11.8486 4.31639 11.3178 3.62792C11.3002 3.60546 11.2836 3.583 11.2695 3.56151C11.0556 3.23143 10.7509 2.97753 10.3876 2.82616C10.1415 2.7246 9.85686 2.7246 9.61076 2.82616C9.24894 2.97753 8.94426 3.23143 8.73039 3.56151C8.70744 3.59667 8.68156 3.62987 8.65324 3.66112C8.0922 4.34178 7.24308 4.6826 6.39885 4.57616C6.37688 4.57421 6.31438 4.56444 6.29289 4.55956C5.92375 4.48144 5.54631 4.51561 5.19914 4.65624C4.95353 4.75585 4.75578 4.95409 4.65617 5.19921C4.51506 5.54687 4.48185 5.9248 4.55998 6.29198C4.56437 6.31053 4.57268 6.37206 4.5756 6.39061C4.68351 7.28123 4.31486 8.16014 3.61466 8.69237C3.23087 8.94432 2.97745 9.24901 2.82706 9.61132C2.72403 9.85839 2.72403 10.1416 2.82657 10.3887C2.97745 10.751 3.23087 11.0556 3.56046 11.2685C4.31485 11.8398 4.68351 12.7187 4.57657 13.6006C4.57364 13.622 4.56485 13.6865 4.55997 13.708C4.48185 14.0761 4.51505 14.4541 4.65616 14.8008C4.75626 15.0478 4.95352 15.2451 5.19766 15.3437C5.54776 15.4863 5.92422 15.5195 6.28946 15.4394C6.31632 15.4336 6.36466 15.4267 6.392 15.4248C7.28555 15.3183 8.16254 15.6855 8.6933 16.3867Z"
    fill="#222222" />
  <path
    d="M9.0375 13.3302C8.76406 13.3302 8.50479 13.2082 8.32949 12.9982L6.79336 11.1554C6.46768 10.7648 6.52041 10.1838 6.91152 9.8576C7.30166 9.53143 7.8832 9.58514 8.20937 9.97576L9.0165 10.9435L11.7768 7.43083C12.0907 7.03044 12.6698 6.96013 13.0707 7.27556C13.4711 7.59001 13.5404 8.16911 13.226 8.56951L9.7621 12.9777C9.59022 13.1965 9.32899 13.3254 9.05067 13.3302H9.0375Z"
    fill="#222222" />
</svg>